<?xml version="1.0" standalone="no"?>
<!DOCTYPE svg PUBLIC "-//W3C//DTD SVG 20010904//EN"
 "http://www.w3.org/TR/2001/REC-SVG-20010904/DTD/svg10.dtd">
<svg version="1.0" xmlns="http://www.w3.org/2000/svg"
 width="1280.000000pt" height="1280.000000pt" viewBox="0 0 1280.000000 1280.000000"
 preserveAspectRatio="xMidYMid meet">
<metadata>
Created by potrace 1.15, written by Peter Selinger 2001-2017
</metadata>
<g transform="translate(0.000000,1280.000000) scale(0.100000,-0.100000)"
fill="#0045ff" stroke="none">
<path d="M2479 12009 c-87 -13 -312 -66 -397 -95 -284 -94 -596 -324 -786
-578 -177 -236 -246 -384 -311 -666 -19 -80 -39 -189 -44 -242 -15 -133 -15
-7896 -1 -8022 24 -209 99 -472 179 -630 105 -206 294 -437 466 -571 230 -179
389 -258 654 -325 258 -65 -91 -60 4296 -60 4372 0 4031 -5 4290 59 230 57
372 121 569 259 234 164 428 390 556 647 92 185 158 422 180 647 7 69 10 1412
7 4058 -3 3717 -4 3960 -20 4040 -73 350 -141 521 -304 752 -104 149 -224 273
-364 377 -217 163 -371 237 -609 297 -279 69 80 64 -4320 63 -2192 -1 -4010
-5 -4041 -10z m7354 -1429 c260 -30 537 -213 677 -448 57 -97 107 -225 120
-307 7 -49 10 -1075 8 -3425 l-3 -3355 -29 -75 c-102 -269 -258 -450 -481
-560 -123 -60 -177 -78 -274 -91 -50 -6 -1237 -9 -3401 -7 l-3325 3 -104 37
c-304 109 -510 316 -618 623 l-28 80 0 3390 0 3390 23 70 c57 169 135 295 254
411 91 89 164 140 272 189 101 45 166 65 244 75 103 12 6560 12 6665 0z"/>
<path d="M8150 10127 c-119 -36 -196 -83 -285 -172 -132 -132 -195 -282 -195
-462 0 -84 -2 -94 -26 -122 -15 -18 -68 -52 -128 -81 -125 -61 -260 -146 -453
-286 -214 -156 -444 -389 -611 -619 -221 -304 -302 -460 -443 -850 -45 -126
-99 -325 -99 -368 0 -25 -3 -28 -22 -22 -113 35 -252 162 -316 292 -90 179
-98 274 -39 433 19 52 60 163 90 245 53 144 84 226 111 290 7 17 18 42 24 58
7 15 19 27 30 27 40 0 142 33 222 71 69 34 101 58 170 128 94 96 145 184 174
302 20 82 20 234 0 319 -44 190 -186 362 -366 444 -126 57 -252 76 -376 57
-156 -24 -258 -77 -377 -196 -63 -63 -90 -98 -122 -165 -75 -153 -92 -338 -45
-482 l19 -57 -25 -23 c-13 -13 -130 -132 -258 -266 -245 -254 -387 -418 -470
-539 -27 -40 -104 -150 -170 -245 -177 -253 -298 -460 -440 -759 -129 -269
-226 -514 -290 -732 -20 -67 -58 -192 -85 -277 -59 -188 -90 -311 -124 -495
-15 -77 -35 -183 -45 -235 -10 -52 -22 -124 -25 -160 -3 -36 -11 -90 -16 -121
-12 -72 -37 -466 -45 -725 l-7 -200 29 -23 c29 -23 31 -23 222 -18 l192 6 -5
-67 c-3 -37 -10 -116 -15 -177 -6 -60 -15 -216 -20 -345 -5 -129 -15 -264 -21
-300 -6 -36 -11 -159 -12 -273 -2 -203 -1 -209 20 -226 19 -16 62 -18 464 -24
410 -7 445 -6 477 10 58 29 77 64 77 140 0 61 -2 68 -28 87 -16 12 -90 42
-165 67 -254 86 -294 101 -299 117 -8 20 12 117 47 227 15 50 40 142 54 205
14 63 54 214 89 335 l64 220 89 0 88 0 18 -50 c111 -304 375 -1091 409 -1218
14 -49 31 -88 48 -106 l26 -28 968 -6 c1053 -8 1010 -10 1055 48 50 63 53 177
6 214 -13 10 -48 25 -77 31 -64 15 -255 95 -280 118 -12 10 -16 24 -12 37 21
71 48 188 55 235 51 340 68 501 78 755 l7 170 33 -105 c19 -58 71 -217 117
-355 96 -287 159 -519 184 -684 5 -31 17 -81 26 -111 9 -30 27 -97 40 -148 27
-109 51 -158 89 -186 27 -20 41 -21 474 -24 422 -2 449 -2 482 16 19 11 46 34
58 53 20 28 23 44 20 92 -4 48 -9 63 -36 90 -46 47 -248 122 -385 142 -80 12
-85 21 -98 175 -11 134 -36 294 -82 525 -13 66 -30 158 -37 205 -16 110 -47
266 -70 355 -22 84 -85 411 -111 580 -20 131 -32 191 -77 395 -16 74 -33 160
-37 190 -4 30 -13 82 -21 115 -10 45 -14 150 -14 426 l0 367 30 123 c16 68 39
149 51 179 12 30 28 81 35 112 18 76 73 214 141 357 30 64 59 127 65 141 9 24
67 118 146 238 19 29 43 57 53 63 18 9 41 -18 270 -317 223 -294 479 -571 735
-799 90 -81 240 -205 287 -238 15 -10 16 -17 8 -40 -6 -16 -11 -64 -11 -108 0
-103 16 -122 110 -134 125 -15 154 -5 166 62 4 19 9 30 13 25 3 -5 35 -31 71
-57 36 -26 66 -49 68 -50 2 -2 -20 -142 -49 -311 -55 -326 -64 -380 -98 -589
-11 -71 -39 -236 -60 -365 -109 -645 -234 -1384 -246 -1460 -7 -47 -27 -163
-43 -258 -31 -177 -31 -203 -3 -236 23 -27 90 -56 131 -56 40 0 117 44 125 71
6 17 19 88 35 194 6 33 14 85 20 115 5 30 17 100 25 155 9 55 20 123 26 150 5
28 32 190 59 360 27 171 55 335 60 365 6 30 31 179 55 330 25 151 54 327 65
390 11 63 56 336 101 605 45 270 84 502 86 516 4 18 14 29 39 38 48 17 101 83
113 143 33 152 0 207 -186 302 -74 39 -118 72 -239 184 -82 76 -165 151 -184
168 -73 65 -100 92 -196 199 -288 318 -397 467 -537 730 -135 254 -150 286
-207 455 -23 69 -49 139 -58 155 -21 40 -162 474 -162 497 0 17 7 18 88 12
397 -30 730 297 709 696 -14 276 -184 501 -449 597 -61 23 -93 27 -198 30
-107 2 -136 0 -200 -20z m-2709 -3529 c89 -64 229 -130 303 -143 l61 -11 6
-289 c5 -265 8 -306 37 -470 36 -207 48 -295 93 -689 14 -120 7 -690 -10 -816
-6 -47 -25 -202 -42 -345 -49 -412 -121 -794 -159 -845 l-18 -24 -84 33 c-78
32 -275 121 -308 139 -24 14 -42 60 -47 121 -9 104 -43 314 -90 546 -63 320
-61 295 -25 295 16 0 40 9 53 19 23 19 24 24 21 131 -2 103 -12 167 -67 420
-39 184 -100 580 -141 921 -42 357 22 933 127 1142 43 84 44 84 139 -7 47 -45
115 -103 151 -128z"/>
</g>
</svg>
