<?xml version="1.0" standalone="no"?>
<!DOCTYPE svg PUBLIC "-//W3C//DTD SVG 20010904//EN"
 "http://www.w3.org/TR/2001/REC-SVG-20010904/DTD/svg10.dtd">
<svg version="1.0" xmlns="http://www.w3.org/2000/svg"
 width="1280.000000pt" height="640.000000pt" viewBox="0 0 1280.000000 640.000000"
 preserveAspectRatio="xMidYMid meet">
<metadata>
Created by potrace 1.15, written by Peter Selinger 2001-2017
</metadata>
<g transform="translate(0.000000,640.000000) scale(0.100000,-0.100000)"
fill="#ff5722" stroke="none">
<path d="M6338 5479 c-490 -15 -1018 -55 -1229 -93 -265 -47 -317 -65 -562
-188 -379 -189 -755 -417 -1062 -645 -161 -119 -201 -133 -375 -133 -73 0
-192 -7 -264 -15 -72 -8 -201 -19 -286 -25 -820 -59 -1571 -201 -1928 -365
-66 -31 -75 -38 -94 -82 -13 -28 -23 -73 -24 -108 -1 -40 -14 -90 -37 -150
-19 -49 -41 -115 -50 -145 l-16 -55 -93 0 c-100 0 -163 -19 -185 -54 -25 -39
-46 -244 -45 -436 0 -268 47 -617 92 -690 32 -52 93 -103 160 -134 115 -53
184 -62 529 -68 304 -6 313 -5 308 13 -3 11 -7 43 -9 73 l-3 54 50 13 c28 7
94 13 147 14 l98 0 -8 -32 c-4 -18 -7 -96 -6 -173 1 -159 18 -241 78 -369 48
-105 98 -178 191 -276 43 -47 73 -80 66 -73 -10 8 -20 9 -32 3 -15 -8 -169
-29 -217 -30 -7 0 -10 -4 -7 -10 3 -5 27 -10 53 -10 26 0 102 -7 167 -15 144
-18 138 -18 130 -4 -4 5 24 -5 62 -24 145 -73 260 -99 428 -99 250 0 449 79
623 246 181 174 274 374 298 638 l5 67 252 -4 c139 -3 695 -10 1237 -15 542
-6 1343 -15 1780 -20 437 -5 1124 -13 1526 -16 l731 -7 12 -80 c38 -274 214
-529 466 -676 38 -23 66 -41 62 -41 -5 0 -17 5 -28 10 -67 37 -1456 54 -3684
46 -984 -4 -1815 -9 -1845 -12 -150 -12 -210 -28 -210 -54 0 -28 70 -73 135
-86 116 -23 220 -26 665 -19 261 4 1058 7 1770 7 1706 -2 2260 8 3124 58 82 4
156 6 165 3 14 -4 14 -3 1 6 -20 15 -8 14 53 -4 126 -35 334 -37 461 -4 72 18
82 19 51 4 l-30 -14 30 -1 c17 0 92 -20 167 -44 217 -72 272 -80 477 -71 97 4
282 8 411 9 208 1 240 3 278 20 54 25 56 51 5 61 -21 4 -126 7 -233 6 -107 -1
-220 3 -250 9 -86 15 -113 21 -122 26 -4 3 -16 7 -25 10 -10 2 -58 18 -108 36
-86 31 -97 32 -250 33 -122 1 -167 -2 -190 -13 -43 -21 -30 -10 55 46 154 100
267 230 344 392 54 115 73 187 86 321 16 166 19 159 63 -146 l33 -230 28 -3
c33 -4 34 -34 -5 290 -13 109 -20 200 -16 204 4 4 96 24 204 45 173 34 217 38
347 39 145 0 149 -1 179 -26 30 -25 32 -25 141 -19 61 4 152 16 201 26 l90 19
18 -25 c11 -14 29 -25 42 -25 23 0 35 -22 35 -67 0 -30 11 -29 50 3 25 21 28
29 18 41 -9 11 -9 16 1 22 10 6 10 17 2 47 -18 64 -18 64 63 64 l75 0 28 -75
c32 -87 51 -100 149 -100 50 0 66 5 96 27 65 50 94 149 67 227 -11 31 -14 32
-48 26 -68 -12 -68 -12 -73 -71 -6 -68 -24 -90 -61 -73 -26 12 -29 20 -42 107
-7 46 -19 56 -78 67 -33 7 -37 5 -37 -14 0 -11 -5 -21 -10 -21 -24 0 -130 34
-130 41 0 14 35 17 283 27 206 8 240 12 257 27 28 25 25 60 -7 85 -24 19 -38
21 -98 18 l-70 -3 1 35 c0 19 4 67 9 105 7 67 6 72 -19 102 -37 44 -84 58
-130 39 -20 -8 -36 -12 -36 -8 0 30 41 205 56 237 15 34 18 68 17 225 -1 102
-2 199 -3 215 -1 17 4 49 11 72 18 58 0 209 -32 259 -21 34 -63 219 -54 235
10 15 -47 69 -83 78 -21 5 -385 12 -812 16 -426 3 -1175 10 -1665 15 -489 6
-961 10 -1048 10 l-158 0 6 143 c7 145 -7 460 -26 577 -19 119 -70 289 -100
330 -37 51 -118 105 -194 129 -104 34 -609 74 -1145 91 -351 11 -346 11 -712
-1z m1017 -495 l310 -6 -4 -127 c-4 -107 -6 -117 -11 -66 -4 33 -7 50 -8 37
-2 -21 -5 -22 -59 -16 -32 4 -62 10 -68 15 -20 19 -65 8 -110 -27 -26 -19 -44
-30 -40 -24 17 28 90 70 122 70 29 0 33 3 33 25 0 29 -3 30 -34 10 -13 -9 -38
-17 -56 -20 -18 -2 -35 -7 -39 -11 -3 -4 2 -4 12 -1 11 4 16 3 12 -3 -3 -6
-11 -10 -17 -10 -6 0 -17 -8 -25 -17 -13 -16 -13 -16 -4 4 10 20 8 22 -34 29
-25 3 -62 3 -82 -1 -80 -14 -87 -14 -48 -1 25 9 32 15 20 16 -11 0 -67 5 -125
11 -58 5 -224 15 -369 22 -189 9 -266 16 -269 25 -2 7 -10 12 -17 12 -10 0
-27 54 -19 63 4 3 576 -2 929 -9z m-1440 -22 c-5 -4 -11 -16 -13 -27 -2 -11
-6 -35 -9 -53 -3 -18 -14 -39 -24 -45 -11 -7 -19 -19 -19 -29 0 -12 -15 -19
-67 -27 -119 -18 -147 -21 -209 -25 -92 -6 -283 -37 -469 -76 -119 -26 -156
-35 -220 -52 -124 -33 -150 -40 -176 -50 -14 -5 -36 -10 -50 -11 -13 -2 -38
-10 -56 -20 -37 -20 -75 -22 -105 -6 -15 8 -23 8 -32 -1 -8 -8 -7 -10 4 -5 9
3 24 -1 35 -9 20 -15 20 -15 0 -16 -12 0 -25 -4 -30 -8 -17 -14 -85 -33 -95
-27 -5 3 -25 -5 -45 -17 -32 -21 -35 -26 -31 -58 4 -26 3 -30 -4 -15 -18 41
-10 52 84 114 80 53 97 61 115 52 46 -25 100 -8 174 57 l42 36 -30 -34 -30
-35 32 29 c18 16 30 33 27 38 -3 5 20 38 50 73 49 56 67 68 134 93 164 63 439
116 742 142 69 5 141 12 160 14 70 6 125 6 115 -2z m1382 -138 c-3 -3 -12 -4
-19 -1 -8 3 -5 6 6 6 11 1 17 -2 13 -5z m53 -29 c0 -2 -10 -9 -22 -15 -22 -11
-22 -10 -4 4 21 17 26 19 26 11z m-1480 -20 c0 -2 -10 -9 -22 -15 -22 -11 -22
-10 -4 4 21 17 26 19 26 11z m20 -19 c0 -3 -15 -14 -32 -26 l-33 -22 30 26
c31 27 35 29 35 22z m-325 -16 c-11 -5 -29 -8 -40 -8 -16 0 -15 2 5 8 34 11
60 11 35 0z m240 -6 c-26 -20 -55 -36 -55 -30 0 5 63 46 70 46 3 -1 -4 -8 -15
-16z m-156 2 c-10 -9 -89 -46 -89 -41 0 6 72 44 84 45 5 0 7 -2 5 -4z m1618
-18 c-3 -8 -6 -5 -6 6 -1 11 2 17 5 13 3 -3 4 -12 1 -19z m-1770 6 c-3 -3 -12
-4 -19 -1 -8 3 -5 6 6 6 11 1 17 -2 13 -5z m-40 -10 c-3 -3 -12 -4 -19 -1 -8
3 -5 6 6 6 11 1 17 -2 13 -5z m-40 -10 c-3 -3 -12 -4 -19 -1 -8 3 -5 6 6 6 11
1 17 -2 13 -5z m-40 -10 c-3 -3 -12 -4 -19 -1 -8 3 -5 6 6 6 11 1 17 -2 13 -5z
m-52 -14 c-11 -5 -27 -9 -35 -9 -9 0 -8 4 5 9 11 5 27 9 35 9 9 0 8 -4 -5 -9z
m-923 -237 c8 -10 18 -25 23 -33 4 -8 -4 -2 -17 14 -17 20 -30 27 -41 23 -21
-8 -21 -29 -2 -70 15 -29 15 -30 0 -12 -23 29 -29 63 -15 80 16 20 34 19 52
-2z m48 -73 c6 -11 8 -20 6 -20 -3 0 -10 9 -16 20 -6 11 -8 20 -6 20 3 0 10
-9 16 -20z m-121 -60 c0 -9 -4 -8 -9 5 -5 11 -9 27 -9 35 0 9 4 8 9 -5 5 -11
9 -27 9 -35z m-3967 -1192 c3 -84 5 -154 3 -155 -1 -2 -23 -7 -50 -12 l-48 -9
7 155 c3 86 9 159 12 164 3 5 20 9 38 9 l33 0 5 -152z m-18 -253 c28 -6 28 -7
23 -63 -14 -141 -17 -149 -50 -156 -17 -3 -33 -4 -36 -1 -3 3 -7 60 -9 126
l-4 120 23 -10 c13 -5 37 -12 53 -16z m11925 -205 c18 -17 31 -36 28 -43 -4
-15 -107 -23 -107 -8 0 15 33 81 40 81 3 0 20 -14 39 -30z m-11806 -232 c28
-48 92 -111 152 -153 l40 -27 -67 6 c-90 9 -185 39 -236 75 -42 31 -61 66 -44
83 13 13 104 57 119 58 6 0 22 -19 36 -42z m8957 -1208 c8 -5 11 -10 5 -10 -5
0 -17 5 -25 10 -8 5 -10 10 -5 10 6 0 17 -5 25 -10z"/>
<path d="M5615 4770 c-16 -7 -17 -9 -3 -9 9 -1 20 4 23 9 7 11 7 11 -20 0z"/>
<path d="M4413 4509 c-35 -22 -46 -37 -15 -20 22 13 58 40 52 41 -3 0 -20 -10
-37 -21z"/>
</g>
</svg>
