<?xml version="1.0" standalone="no" ?>
<!DOCTYPE svg PUBLIC "-//W3C//DTD SVG 20010904//EN" "http://www.w3.org/TR/2001/REC-SVG-20010904/DTD/svg10.dtd">
<svg version="1.0" xmlns="http://www.w3.org/2000/svg" width="1280.000000pt" height="820.000000pt" viewBox="0 0 1280.000000 820.000000" preserveAspectRatio="xMidYMid meet">
    <g transform="translate(0.000000,820.000000) scale(0.100000,-0.100000)" fill="#ff5722" stroke="none">
        <path d="M8339 8195 c-5 -4 -202 -46 -1824 -386 -1596 -334 -1515 -316 -1552
-345 -85 -65 -168 -237 -134 -278 18 -21 -220 -494 -252 -501 -12 -2 -422 -68
-912 -145 -981 -155 -1017 -161 -1084 -191 -67 -30 -99 -64 -141 -155 -21 -45
-42 -84 -47 -87 -5 -3 -160 -31 -344 -62 -184 -31 -341 -58 -350 -61 -9 -2
-78 -74 -153 -159 l-136 -155 0 -688 c0 -468 -3 -699 -11 -720 -12 -35 -13
-36 -213 -52 -65 -5 -121 -12 -124 -15 -6 -6 -19 -309 -14 -324 2 -5 51 -6
110 -4 l107 5 275 -172 c151 -95 282 -179 291 -187 15 -13 14 -20 -18 -81 -41
-82 -57 -170 -49 -282 30 -414 310 -843 661 -1010 143 -68 225 -85 415 -85
174 0 225 8 383 60 118 38 278 117 326 161 129 116 200 276 262 592 12 64 30
123 40 135 l17 22 749 -4 c411 -2 1004 -7 1318 -10 l569 -6 7 -40 c4 -22 15
-87 24 -145 64 -400 228 -798 419 -1015 l44 -50 208 1 c204 0 296 8 478 41 81
14 94 20 134 57 55 50 122 151 182 275 41 86 47 92 70 87 274 -60 613 83 755
319 39 65 83 194 110 323 10 45 23 90 30 99 11 15 56 13 596 -26 321 -23 595
-45 608 -49 22 -6 26 -17 43 -117 35 -210 101 -395 191 -532 78 -120 72 -117
244 -110 148 6 243 18 296 39 35 14 83 80 140 193 56 110 89 209 116 339 11
54 24 102 28 106 4 5 57 4 117 -1 60 -6 110 -8 112 -7 2 2 -17 170 -41 373
-24 204 -48 451 -55 550 -6 99 -20 315 -30 480 -11 165 -26 417 -35 560 -9
143 -20 270 -25 281 -5 12 -6 31 -4 41 5 17 -77 48 -818 303 -685 236 -1011
349 -1488 518 -24 8 -39 17 -33 19 6 2 523 -166 1147 -374 624 -207 1137 -375
1139 -373 3 3 -42 284 -98 625 -57 341 -101 623 -99 627 3 5 12 8 21 8 25 0 9
94 -29 170 l-33 65 -1115 703 c-613 387 -1149 721 -1191 742 -113 58 -308 108
-330 85z m277 -413 c-11 -10 -15 4 -8 28 l7 25 3 -23 c2 -13 1 -26 -2 -30z
m-3226 -928 c215 -86 393 -160 396 -166 9 -15 -2 -21 -54 -26 -40 -3 -59 1
-113 28 -123 63 -162 72 -321 77 -109 4 -179 1 -273 -12 -80 -11 -130 -14
-136 -8 -6 6 6 51 31 124 22 63 43 120 45 127 2 6 11 12 20 12 8 0 191 -70
405 -156z m4877 -769 c12 -82 18 -154 14 -158 -5 -5 -116 43 -247 105 -196 94
-241 119 -253 142 -10 21 -10 31 -2 39 13 13 186 24 356 23 l110 -1 22 -150z
m602 106 c62 -16 118 -34 123 -39 6 -6 25 -124 44 -263 34 -250 34 -253 16
-288 -11 -20 -31 -40 -45 -45 -28 -10 -58 -1 -213 70 l-71 32 -55 104 -55 103
-7 121 -8 121 64 56 c35 32 70 57 78 57 8 0 66 -13 129 -29z" />
    </g>
</svg>