<?xml version="1.0" standalone="no"?>
<!DOCTYPE svg PUBLIC "-//W3C//DTD SVG 20010904//EN"
 "http://www.w3.org/TR/2001/REC-SVG-20010904/DTD/svg10.dtd">
<svg version="1.0" xmlns="http://www.w3.org/2000/svg"
 width="1280.000000pt" height="1266.000000pt" viewBox="0 0 1280.000000 1266.000000"
 preserveAspectRatio="xMidYMid meet">
<metadata>
Created by potrace 1.15, written by Peter Selinger 2001-2017
</metadata>
<g transform="translate(0.000000,1266.000000) scale(0.100000,-0.100000)"
fill="#0045ff" stroke="none">
<path d="M4540 11109 c0 -1237 -3 -1550 -12 -1546 -7 2 -613 351 -1346 775
l-1332 770 -24 -41 c-662 -1138 -1826 -3167 -1824 -3179 2 -12 445 -273 1328
-783 729 -421 1330 -767 1335 -769 6 -2 8 -5 5 -8 -3 -2 -605 -350 -1338 -773
-930 -537 -1332 -773 -1332 -785 0 -12 1270 -2222 1826 -3177 l24 -41 1332
770 c733 424 1339 773 1346 775 9 4 12 -309 12 -1546 l0 -1551 1865 0 1865 0
-2 1550 c-2 1031 0 1549 7 1546 6 -2 610 -350 1343 -774 l1332 -770 24 41
c556 955 1826 3165 1826 3177 0 12 -402 248 -1332 785 -733 423 -1335 771
-1338 773 -3 3 0 6 5 8 6 2 606 348 1335 769 883 510 1326 771 1328 783 2 12
-1162 2041 -1824 3179 l-24 41 -1332 -770 c-733 -424 -1337 -772 -1343 -774
-7 -3 -9 515 -7 1546 l2 1550 -1865 0 -1865 0 0 -1551z m3652 -107 l3 -1577
1360 786 c997 577 1363 783 1371 775 15 -15 1774 -3063 1774 -3073 0 -4 -33
-26 -73 -49 -98 -55 -2606 -1502 -2635 -1521 -23 -14 -14 -20 266 -181 1585
-912 2441 -1408 2442 -1415 0 -10 -1759 -3058 -1774 -3073 -8 -8 -374 198
-1371 775 l-1360 786 -3 -1577 -2 -1578 -1788 0 -1787 0 3 1580 c1 869 0 1580
-2 1580 -2 0 -617 -355 -1367 -789 -1001 -578 -1367 -785 -1375 -777 -15 15
-1774 3063 -1774 3073 1 7 857 503 2442 1415 280 161 289 167 266 181 -29 19
-2537 1466 -2635 1521 -40 23 -73 45 -73 49 0 10 1759 3058 1774 3073 8 8 374
-199 1375 -777 750 -434 1365 -789 1367 -789 2 0 3 711 2 1580 l-3 1580 1787
0 1788 0 2 -1578z"/>
<path d="M4732 10840 c3 -1397 1 -1619 -11 -1615 -12 5 -460 263 -2583 1488
l-217 125 -831 -1441 c-695 -1203 -830 -1442 -817 -1451 8 -6 638 -371 1401
-811 762 -440 1386 -802 1386 -805 0 -3 -624 -365 -1386 -805 -762 -440 -1393
-804 -1401 -810 -13 -10 104 -217 729 -1301 410 -709 784 -1357 832 -1440 l87
-152 1402 809 c770 445 1403 809 1406 809 4 0 5 -729 3 -1620 l-2 -1620 1670
0 1670 0 2 1620 3 1621 1402 -809 1402 -810 832 1441 c704 1220 829 1442 816
1452 -8 6 -639 371 -1401 810 -762 440 -1386 802 -1386 805 0 3 624 365 1386
805 763 440 1393 805 1402 811 12 9 -122 247 -817 1452 l-832 1441 -127 -74
c-70 -41 -701 -405 -1402 -809 l-1275 -736 -3 1620 -2 1620 -1670 0 -1670 0 2
-1620z"/>
</g>
</svg>
